<?xml version="1.0" encoding="UTF-8" standalone="no"?>
<svg
   width="8"
   height="8"
   viewBox="-14 -10 8 8"
   version="1.1"
   id="svg1"
   sodipodi:docname="comment-close.svg"
   inkscape:version="1.4 (e7c3feb100, 2024-10-09)"
   xmlns:inkscape="http://www.inkscape.org/namespaces/inkscape"
   xmlns:sodipodi="http://sodipodi.sourceforge.net/DTD/sodipodi-0.dtd"
   xmlns="http://www.w3.org/2000/svg"
   xmlns:svg="http://www.w3.org/2000/svg"
   xmlns:rdf="http://www.w3.org/1999/02/22-rdf-syntax-ns#"
   xmlns:cc="http://creativecommons.org/ns#"
   xmlns:dc="http://purl.org/dc/elements/1.1/">
  <sodipodi:namedview
     id="namedview1"
     pagecolor="#505050"
     bordercolor="#ffffff"
     borderopacity="1"
     inkscape:showpageshadow="0"
     inkscape:pageopacity="0"
     inkscape:pagecheckerboard="1"
     inkscape:deskcolor="#505050"
     inkscape:zoom="199.75"
     inkscape:cx="6.0650814"
     inkscape:cy="5.7096371"
     inkscape:window-width="1920"
     inkscape:window-height="1008"
     inkscape:window-x="0"
     inkscape:window-y="0"
     inkscape:window-maximized="1"
     inkscape:current-layer="svg1" />
  <!-- Generator: Sketch 50.2 (55047) - http://www.bohemiancoding.com/sketch -->
  <title
     id="title1">delete-x</title>
  <desc
     id="desc1">Created with Sketch.</desc>
  <defs
     id="defs1" />
  <g
     id="delete-x"
     stroke="none"
     stroke-width="1"
     fill="none"
     fill-rule="evenodd"
     transform="matrix(0.7366237,0,0,0.73661434,-14.368312,-10.368308)">
    <path
       d="m 10.876112,10.87825 c -0.634,0.643 -1.6709997,0.643 -2.3139997,0 l -2.633,-2.633 -2.634,2.633 c -0.639,0.639 -1.675,0.639 -2.31399999,0 -0.319,-0.319 -0.481,-0.741 -0.481,-1.157 0,-0.417 0.162,-0.838 0.481,-1.157 l 2.63299999,-2.633 -2.63699999,-2.638 c -0.32,-0.32 -0.482,-0.741 -0.477,-1.162 0,-0.417 0.157,-0.833 0.477,-1.152 0.63799999,-0.639 1.67399999,-0.639 2.31399999,0 l 2.638,2.637 2.637,-2.637 c 0.639,-0.639 1.6759997,-0.639 2.3149997,0 0.639,0.638 0.639,1.675 0,2.314 l -2.6389997,2.638 2.6389997,2.637 c 0.639,0.639 0.639,1.666 -0.005,2.31"
       id="Fill-1"
       fill="#575e75" />
  </g>
  <metadata
     id="metadata2">
    <rdf:RDF>
      <cc:Work
         rdf:about="">
        <dc:title>delete-x</dc:title>
      </cc:Work>
    </rdf:RDF>
  </metadata>
</svg>
